<svg width="80" height="80" viewBox="0 0 80 80" fill="none" xmlns="http://www.w3.org/2000/svg">
<path d="M40 75C59.33 75 75 59.33 75 40C75 20.67 59.33 5 40 5C20.67 5 5 20.67 5 40C5 59.33 20.67 75 40 75Z" fill="#1794D4"/>
<path d="M45 17.5H40V22.5H45V17.5Z" fill="white"/>
<path d="M25 25H30V30H25V25Z" fill="white"/>
<path d="M15.0039 42.3535C15.4311 49.6068 19.7507 60 35 60C52 60 59.5832 47.5 61.25 41.25C63.3332 41.25 68 40 70 35C68.75 33.75 63.75 33.75 61.25 35C61.25 33 60 28.75 57.5 27.5C55.8332 29.1668 53.25 33.5 56.25 37.5C55 40 51.6667 40 50 40H17.3572C16.0335 40 14.926 41.032 15.0039 42.3535Z" fill="white"/>
<path d="M22.5 32.5H17.5V37.5H22.5V32.5Z" fill="white"/>
<path d="M25 32.5H30V37.5H25V32.5Z" fill="white"/>
<path d="M37.5 32.5H32.5V37.5H37.5V32.5Z" fill="white"/>
<path d="M40 32.5H45V37.5H40V32.5Z" fill="white"/>
<path d="M52.5 32.5H47.5V37.5H52.5V32.5Z" fill="white"/>
<path d="M37.5 25H32.5V30H37.5V25Z" fill="white"/>
<path d="M40 25H45V30H40V25Z" fill="white"/>
</svg>
