<svg width="40" height="62" viewBox="0 0 40 62" fill="none" xmlns="http://www.w3.org/2000/svg">
<path fill-rule="evenodd" clip-rule="evenodd" d="M8.88995 22.3889C4.13402 22.3889 0.278854 26.2436 0.278854 30.9993C0.278854 35.7553 4.13419 39.6106 8.88995 39.6106H17.501V31.173C17.5003 31.1153 17.5 31.0573 17.5 30.9993C17.5 30.9416 17.5003 30.8836 17.501 30.826V22.3889H8.88995ZM17.501 17.3889H8.88995C4.13419 17.3889 0.278854 13.5335 0.278854 8.77773C0.278854 4.02196 4.13419 0.166626 8.88995 0.166626H17.501V17.3889ZM22.501 0.166626V17.3887L31.11 17.3883C35.8657 17.3883 39.7223 13.5334 39.7223 8.77773C39.7223 4.02196 35.867 0.166626 31.111 0.166626H22.501ZM31.1103 22.3883C26.401 22.3888 22.5747 26.1696 22.501 30.8613V31.1373C22.5747 35.8296 26.4013 39.6106 31.111 39.6106C35.867 39.6106 39.7223 35.7553 39.7223 30.9993C39.7223 26.2436 35.866 22.3884 31.1103 22.3883ZM8.88995 44.6106C4.13432 44.6106 0.27832 48.4666 0.27832 53.2226C0.27832 57.9786 4.13362 61.834 8.88942 61.834C13.6453 61.834 17.5007 57.9786 17.5007 53.2226L17.501 44.6106H8.88995Z" fill="#904AE8"/>
</svg>
