<svg width="68" height="80" viewBox="0 0 68 80" fill="none" xmlns="http://www.w3.org/2000/svg">
<path d="M9 7.5C8.30965 7.5 7.75 8.05965 7.75 8.75V56.5015C7.75 56.948 7.98845 57.361 8.37545 57.584L32.669 71.597C33.0471 71.815 33.5115 71.82 33.8943 71.6105L59.6005 57.524C60.001 57.3045 60.25 56.8845 60.25 56.428V8.75C60.25 8.05965 59.6905 7.5 59 7.5H9ZM0.25 8.75C0.25 3.91751 4.1675 0 9 0H59C63.8325 0 67.75 3.91751 67.75 8.75V56.428C67.75 59.624 66.0075 62.5655 63.205 64.1015L37.4984 78.1875C34.8192 79.6555 31.5682 79.62 28.9217 78.0935L4.6281 64.081C1.9191 62.5185 0.25 59.629 0.25 56.5015V8.75ZM19 21.25C19 19.179 20.679 17.5 22.75 17.5H45.827C47.898 17.5 49.577 19.179 49.577 21.25C49.577 23.321 47.898 25 45.827 25H26.5V33.5577H45.827C47.898 33.5577 49.577 35.2366 49.577 37.3077V51.731C49.577 53.151 48.7745 54.4495 47.504 55.085L35.9655 60.854C34.9098 61.382 33.6672 61.382 32.6114 60.854L21.0729 55.085C19.8025 54.4495 19 53.151 19 51.731V48.8461C19 46.7751 20.679 45.0961 22.75 45.0961C24.821 45.0961 26.5 46.7751 26.5 48.8461V49.4132L34.2884 53.3075L42.0769 49.4132V41.0577H22.75C20.679 41.0577 19 39.3788 19 37.3077V21.25Z" fill="#DB67BA"/>
</svg>
