<svg width="141" height="128" viewBox="0 0 141 128" fill="none" xmlns="http://www.w3.org/2000/svg">
<path d="M59.0085 61.635L59.196 72.51H57.7273C55.644 65.9892 51.9669 62.7288 46.696 62.7288C43.7794 62.7288 41.5085 63.5413 39.8835 65.1663C38.2794 66.7704 37.4773 68.4371 37.4773 70.1663C37.4773 71.7704 38.144 73.135 39.4773 74.26C40.8315 75.385 43.2898 76.26 46.8523 76.885C50.4148 77.4892 53.1231 78.2392 54.9773 79.135C56.8523 80.01 58.4252 81.4788 59.696 83.5413C60.9877 85.6038 61.6335 87.9683 61.6335 90.635C61.6335 94.7392 60.2898 98.1558 57.6023 100.885C54.9356 103.614 51.6231 104.979 47.6648 104.979C44.4356 104.979 41.2169 103.781 38.0085 101.385L35.071 104.01H33.9773V92.2913H35.321C36.5502 95.9788 38.269 98.7496 40.4773 100.604C42.6856 102.458 45.1023 103.385 47.7273 103.385C50.3315 103.385 52.7169 102.531 54.8835 100.823C57.071 99.0933 58.1648 96.9163 58.1648 94.2913C58.1648 92.0829 57.4044 90.2288 55.8835 88.7288C54.3835 87.2079 51.9356 86.1663 48.5398 85.6038C45.1648 85.0204 42.571 84.3538 40.7585 83.6038C38.946 82.8329 37.394 81.51 36.1023 79.635C34.8106 77.7392 34.1648 75.6454 34.1648 73.3538C34.1648 70.1871 35.2898 67.3642 37.5398 64.885C39.7898 62.385 42.8419 61.135 46.696 61.135C49.9252 61.135 52.9356 62.1558 55.7273 64.1975C56.4981 63.4683 57.1648 62.6142 57.7273 61.635H59.0085ZM67.821 100.823C67.821 99.76 68.196 98.8433 68.946 98.0725C69.7169 97.3017 70.6335 96.9163 71.696 96.9163C72.8002 96.9163 73.7377 97.3017 74.5085 98.0725C75.2794 98.8225 75.6648 99.7392 75.6648 100.823C75.6648 101.906 75.2794 102.843 74.5085 103.635C73.7377 104.406 72.8002 104.791 71.696 104.791C70.6335 104.791 69.7169 104.406 68.946 103.635C68.196 102.843 67.821 101.906 67.821 100.823ZM83.2585 62.1038H118.977L120.071 76.3538H118.477C117.498 71.5829 116.196 68.2808 114.571 66.4475C112.967 64.6142 110.852 63.6975 108.227 63.6975H104.821V102.416H112.321V104.01H89.9148V102.416H97.4148V63.6975H94.0085C91.3835 63.6975 89.2585 64.6142 87.6335 66.4475C86.0294 68.2808 84.7377 71.5829 83.7585 76.3538H82.1648L83.2585 62.1038Z" fill="#E1B5F6"/>
<line x1="117.509" y1="45.01" x2="117.509" y2="0.0100098" stroke="#E1B5F6" stroke-width="3"/>
<line x1="118.009" y1="1.51001" x2="3.00854" y2="1.51001" stroke="#E1B5F6" stroke-width="3"/>
<line x1="2.00854" y1="113.012" x2="2.00854" y2="-9.15527e-05" stroke="#E1B5F6" stroke-width="3"/>
<line x1="1" y1="112.51" x2="118.017" y2="112.51" stroke="#E1B5F6" stroke-width="3"/>
</svg>
