<svg width="50" height="50" viewBox="0 0 50 50" fill="none" xmlns="http://www.w3.org/2000/svg">
<g clip-path="url(#clip0_166_12)">
<path d="M47.9164 24.9999C47.9164 31.0777 45.5019 36.9067 41.2042 41.2044C36.9065 45.5021 31.0776 47.9165 24.9997 47.9165C18.9218 47.9165 13.0929 45.5021 8.79516 41.2044C4.49745 36.9067 2.08302 31.0777 2.08302 24.9999C2.08126 23.2462 2.28401 21.4983 2.68719 19.7915C3.86628 14.7587 6.71222 10.2724 10.7628 7.06111C14.8134 3.84984 19.8306 2.10229 24.9997 2.10229C30.1688 2.10229 35.186 3.84984 39.2366 7.06111C43.2871 10.2724 46.1331 14.7587 47.3122 19.7915C47.7154 21.4983 47.9181 23.2462 47.9164 24.9999Z" fill="#FD89FF"/>
<path d="M25 37.4999C37.3229 37.4999 47.3125 29.5716 47.3125 19.7916C47.3125 10.0115 37.3229 2.08325 25 2.08325C12.6771 2.08325 2.6875 10.0115 2.6875 19.7916C2.6875 29.5716 12.6771 37.4999 25 37.4999Z" fill="#FAECEC"/>
<path d="M25 0C20.0555 0 15.222 1.46622 11.1108 4.21326C6.99953 6.96029 3.79521 10.8648 1.90302 15.4329C0.0108322 20.0011 -0.484251 25.0277 0.480379 29.8773C1.44501 34.7268 3.82603 39.1814 7.32234 42.6777C10.8187 46.174 15.2732 48.555 20.1228 49.5196C24.9723 50.4843 29.9989 49.9892 34.5671 48.097C39.1352 46.2048 43.0397 43.0005 45.7867 38.8893C48.5338 34.778 50 29.9445 50 25C49.9928 18.3718 47.3566 12.0171 42.6698 7.33025C37.9829 2.64339 31.6282 0.00716892 25 0ZM25 45.8333C20.8796 45.8333 16.8517 44.6115 13.4256 42.3223C9.99961 40.0331 7.32935 36.7794 5.75252 32.9726C4.1757 29.1658 3.76313 24.9769 4.56698 20.9356C5.37084 16.8943 7.35503 13.1822 10.2686 10.2686C13.1822 7.35501 16.8944 5.37083 20.9356 4.56697C24.9769 3.76311 29.1658 4.17568 32.9726 5.75251C36.7794 7.32934 40.0331 9.9996 42.3223 13.4256C44.6115 16.8516 45.8333 20.8796 45.8333 25C45.8273 30.5235 43.6304 35.819 39.7247 39.7247C35.819 43.6304 30.5235 45.8273 25 45.8333Z" fill="#6A6A6C"/>
<path d="M26.4728 11.027C26.0821 10.6364 25.5523 10.417 24.9999 10.417C24.4475 10.417 23.9177 10.6364 23.527 11.027L15.1936 19.3603C14.9947 19.5525 14.8359 19.7824 14.7268 20.0365C14.6176 20.2907 14.5601 20.5641 14.5577 20.8407C14.5553 21.1173 14.608 21.3917 14.7128 21.6477C14.8175 21.9037 14.9722 22.1363 15.1678 22.332C15.3634 22.5276 15.596 22.6823 15.8521 22.787C16.1081 22.8918 16.3824 22.9445 16.6591 22.9421C16.9357 22.9397 17.2091 22.8822 17.4632 22.773C17.7174 22.6638 17.9473 22.5051 18.1395 22.3061L22.9166 17.529V37.4999C22.9166 38.0524 23.136 38.5823 23.5267 38.973C23.9174 39.3637 24.4473 39.5832 24.9999 39.5832C25.5524 39.5832 26.0823 39.3637 26.473 38.973C26.8637 38.5823 27.0832 38.0524 27.0832 37.4999V17.529L31.8603 22.3061C32.2532 22.6856 32.7795 22.8956 33.3257 22.8909C33.872 22.8861 34.3945 22.667 34.7808 22.2808C35.167 21.8945 35.3861 21.372 35.3909 20.8257C35.3956 20.2795 35.1856 19.7532 34.8061 19.3603L26.4728 11.027Z" fill="#6A6A6C"/>
</g>
<defs>
<clipPath id="clip0_166_12">
<rect width="50" height="50" fill="white"/>
</clipPath>
</defs>
</svg>
