<svg width="80" height="80" viewBox="0 0 80 80" fill="none" xmlns="http://www.w3.org/2000/svg">
<g clip-path="url(#clip0_24_16)">
<path d="M40.294 58.4045C37.359 58.4045 35.6652 61.2851 35.6652 64.8413C35.6361 68.4549 37.3867 71.2224 40.2666 71.2224C43.1741 71.2224 44.8683 68.4834 44.8683 64.7579C44.8682 61.2851 43.2307 58.4045 40.294 58.4045Z" fill="#0E4773"/>
<path d="M69.0043 19.1709C68.9997 18.804 68.8833 18.4416 68.6313 18.1552L53.2061 0.536528C53.203 0.531589 53.1971 0.529992 53.1939 0.525489C53.102 0.422802 52.9964 0.338126 52.8829 0.263471C52.8492 0.241684 52.8139 0.222077 52.7787 0.202178C52.6806 0.149019 52.5779 0.104865 52.4693 0.0726215C52.4417 0.0641974 52.4141 0.0522875 52.385 0.0447348C52.2687 0.0165577 52.1477 0 52.0266 0H14.1177C12.3882 0 10.9805 1.40784 10.9805 3.13739V76.8627C10.9805 78.593 12.3882 80.0001 14.1177 80.0001H65.8823C67.6119 80.0001 69.0197 78.593 69.0197 76.8627V19.3467C69.0196 19.2877 69.0104 19.2299 69.0043 19.1709ZM21.4063 74.61C19.2314 74.61 17.0865 74.0447 16.0142 73.4511L16.8888 69.8949C18.0454 70.4877 19.825 71.0806 21.659 71.0806C23.6362 71.0806 24.6799 70.261 24.6799 69.0188C24.6799 67.8323 23.778 67.156 21.491 66.338C18.3296 65.2366 16.2678 63.4848 16.2678 60.719C16.2678 57.4722 18.9791 54.9875 23.4674 54.9875C25.6136 54.9875 27.1945 55.4394 28.3231 55.948L27.3626 59.4199C26.6009 59.0538 25.2457 58.5184 23.3829 58.5184C21.5186 58.5184 20.6168 59.364 20.6168 60.3528C20.6168 61.5668 21.6887 62.103 24.1446 63.0344C27.5036 64.2767 29.0863 66.0276 29.0863 68.71C29.0854 71.8986 26.6284 74.61 21.4063 74.61ZM48.2552 77.601C45.5454 76.8106 43.2873 75.9926 40.746 74.9187C40.3232 74.7502 39.8713 74.6652 39.4193 74.6375C35.1286 74.3563 31.1202 71.193 31.1202 64.9814C31.1202 59.279 34.7334 54.9875 40.4073 54.9875C46.2238 54.9875 49.4132 59.3916 49.4132 64.5862C49.4132 68.906 47.4094 71.9551 44.8956 73.0835V73.1975C46.3647 73.6219 48.0023 73.9605 49.4975 74.2691L48.2552 77.601ZM64.1237 74.3274H52.2381V55.2994H56.5579V70.713H64.1237V74.3274ZM14.1177 53.2682V3.13739H50.458V19.1889C50.458 20.0547 51.1596 20.7575 52.0266 20.7575H65.8823L65.8839 53.2682H14.1177Z" fill="#0E4773"/>
<path d="M48.5278 24.8614C48.5968 24.6714 48.6458 24.4769 48.6458 24.2713C48.6458 21.7461 43.1893 20.3839 38.0541 20.3839C32.924 20.3839 27.4689 21.7461 27.4689 24.2713C27.4689 24.4769 27.5168 24.6723 27.5866 24.863L27.5593 24.9117C27.3245 25.3375 27.2085 25.7671 27.2085 26.1899V29.3146C27.2085 29.7956 27.3598 30.2575 27.6282 30.6941L27.5931 30.7538C27.3372 31.1976 27.2086 31.6472 27.2086 32.0912V35.215C27.2086 35.681 27.3514 36.128 27.6053 36.5524L27.5931 36.5719C27.3372 37.015 27.2086 37.4654 27.2086 37.9084V41.0326C27.2086 43.81 31.9728 45.9844 38.0542 45.9844C44.1422 45.9844 48.9063 43.81 48.9063 41.0326V37.9084C48.9063 37.4646 48.7777 37.0135 48.5187 36.571L48.5081 36.5539C48.7599 36.1288 48.9063 35.6819 48.9063 35.215V32.0912C48.9063 31.6466 48.7777 31.1954 48.5187 30.7523L48.4851 30.6948C48.7533 30.2575 48.9063 29.7963 48.9063 29.3138V26.1892C48.9063 25.7664 48.7884 25.3356 48.5556 24.9096L48.5278 24.8614ZM47.7437 41.0325C47.7437 42.8264 43.7669 44.8223 38.0542 44.8223C32.3469 44.8223 28.3694 42.8264 28.3694 41.0325V38.0941C30.1505 39.7254 33.8149 40.7659 38.0542 40.7659C42.2994 40.7659 45.9636 39.7247 47.7437 38.0925V41.0325ZM47.7437 35.2149C47.7437 37.0072 43.7669 39.0047 38.0542 39.0047C32.3469 39.0047 28.3694 37.0072 28.3694 35.2149V32.2761C30.1505 33.9067 33.8149 34.9482 38.0542 34.9482C42.2994 34.9482 45.9636 33.9066 47.7437 32.2745V35.2149ZM47.7437 29.3137C47.7437 31.106 43.7669 33.1035 38.0542 33.1035C32.3469 33.1035 28.3694 31.1067 28.3694 29.3137V26.7138C30.11 28.1889 34.146 28.9538 38.0542 28.9538C41.9677 28.9538 46.0019 28.1889 47.7437 26.7138V29.3137Z" fill="#0E4773"/>
</g>
<defs>
<clipPath id="clip0_24_16">
<rect width="80" height="80" fill="white"/>
</clipPath>
</defs>
</svg>
