<svg width="50" height="50" viewBox="0 0 50 50" fill="none" xmlns="http://www.w3.org/2000/svg">
<g clip-path="url(#clip0_166_2)">
<rect width="50" height="50" fill="#BDB4B4"/>
<path d="M25 50C38.8071 50 50 38.8071 50 25C50 11.1929 38.8071 0 25 0C11.1929 0 0 11.1929 0 25C0 38.8071 11.1929 50 25 50Z" fill="#FAECEC"/>
<path d="M29.5989 49.5762C39.7341 47.6916 47.7198 39.6934 49.5854 29.5515L31.9356 11.8449L25.2066 10.5398L18.8301 14.4413L25.5449 21.1671L23.8217 43.855L29.5989 49.5762Z" fill="#FFDEDE"/>
<path d="M32.1664 12.0733L26.695 6.60195C26.0376 5.94453 24.9716 5.94453 24.314 6.60195L18.8427 12.0733C18.3612 12.5548 18.2173 13.2789 18.4778 13.908C18.7385 14.537 19.3522 14.9473 20.0332 14.9473H23.8211V43.8554H27.1881V14.9473H30.976C31.6567 14.9473 32.2708 14.537 32.5313 13.908C32.792 13.2789 32.6479 12.5548 32.1664 12.0733Z" fill="#6A6A6C"/>
<path d="M32.1663 12.0731L26.6949 6.60176C26.3805 6.2873 25.9726 6.125 25.5605 6.11133V43.8551H27.1878V14.9471H30.9759C31.6566 14.9471 32.2707 14.5368 32.5312 13.9078C32.7919 13.2787 32.6479 12.5546 32.1663 12.0731Z" fill="#6A6A6C"/>
</g>
<defs>
<clipPath id="clip0_166_2">
<rect width="50" height="50" fill="white"/>
</clipPath>
</defs>
</svg>
