<svg width="50" height="50" viewBox="0 0 50 50" fill="none" xmlns="http://www.w3.org/2000/svg">
<g clip-path="url(#clip0_166_8)">
<path d="M0 25.0006C0 38.8088 11.192 50.0004 24.9996 50C38.808 50.0004 50 38.8088 50 25.0006C50.0009 11.1924 38.808 0 24.9996 0C11.192 0 0 11.1928 0 25.0006Z" fill="#FAECEC"/>
<path d="M48.9678 32.112L25.4879 8.63223C25.2182 8.3625 24.7814 8.3625 24.5116 8.63223L10.7033 22.4407C10.4335 22.7104 10.4335 23.1473 10.7033 23.417C10.7316 23.4453 10.7674 23.4583 10.799 23.4807C10.8212 23.5122 10.8343 23.5481 10.8626 23.5764C10.891 23.6046 24.2909 36.9886 24.3094 37.0035V40.8798C24.3094 41.1117 24.4313 41.3069 24.6068 41.4322C24.6515 41.4948 32.0354 48.8787 32.0979 48.9233C32.1085 48.9383 32.1243 48.9475 32.1358 48.9612C40.2119 46.5599 46.5744 40.1913 48.9678 32.112Z" fill="#FBCAFC"/>
<path d="M39.2964 22.4407L25.4879 8.63223C25.2182 8.3625 24.7814 8.3625 24.5117 8.63223L10.7033 22.4407C10.4335 22.7105 10.4335 23.1473 10.7033 23.417C10.973 23.6867 11.4098 23.6867 11.6795 23.417L24.3094 10.7871V40.8798C24.3094 41.261 24.6186 41.5702 24.9999 41.5702C25.3811 41.5702 25.6903 41.261 25.6903 40.8798V10.7871L38.3202 23.417C38.455 23.5519 38.6316 23.6192 38.8083 23.6192C38.9849 23.6192 39.1616 23.5519 39.2963 23.417C39.5662 23.1473 39.5662 22.7105 39.2964 22.4407Z" fill="#6A6A6C"/>
</g>
<defs>
<clipPath id="clip0_166_8">
<rect width="50" height="50" fill="white"/>
</clipPath>
</defs>
</svg>
